# xmcd
#
# Track frame offsets: 
#        150
#        12233
#        24249
#        35730
#        50357
#        64005
#        88192
#        101042
#        116364
#        130187
#        144861
#
# Disc length: 2113 seconds
#
# Revision: 1
# Processed by: cddbd v1.5.2PL0 Copyright (c) Steve Scherf et al.
# Submitted via: ExactAudioCopyFreeDBPlugin 1.0
#
DISCID=8a083f0b
DTITLE=Matthew Stubbs - Medford and Main
DYEAR=2010
DGENRE=Modern Blues
TTITLE0=Medford and Main
TTITLE1=Pistol Whip
TTITLE2=Uncle Sonny
TTITLE3=Sleepy Eyes
TTITLE4=Double N
TTITLE5=Tube Top Temptation
TTITLE6=Yikes Ike
TTITLE7=Mangos
TTITLE8=Rug Burn
TTITLE9=Waffles
TTITLE10=Fazzo Beans
EXTD=
EXTT0=
EXTT1=
EXTT2=
EXTT3=
EXTT4=
EXTT5=
EXTT6=
EXTT7=
EXTT8=
EXTT9=
EXTT10=
PLAYORDER=
